<mxfile host="app.diagrams.net" modified="2023-06-18T02:24:11.355Z" agent="Mozilla/5.0 (Macintosh; Intel Mac OS X 10_15_7) AppleWebKit/537.36 (KHTML, like Gecko) Chrome/114.0.0.0 Safari/537.36" version="21.4.0" etag="cB_mc5voIKI9WsBTzMhp" type="github">
  <diagram name="第 1 页" id="bM4G4BQA2qDGz53A8ogb">
    <mxGraphModel>
      <root>
        <mxCell id="0" />
        <mxCell id="1" parent="0" />
      </root>
    </mxGraphModel>
  </diagram>
</mxfile>
